<svg width="28" height="28" viewBox="0 0 28 28" fill="none" xmlns="http://www.w3.org/2000/svg">
<path d="M14 28C21.732 28 28 21.732 28 14C28 6.26801 21.732 0 14 0C6.26801 0 0 6.26801 0 14C0 21.732 6.26801 28 14 28Z" fill="#0052FF"/>
<path d="M14.0001 4.66675C8.84788 4.66675 4.66675 8.84788 4.66675 14.0001C4.66675 19.1523 8.84788 23.3334 14.0001 23.3334C19.1523 23.3334 23.3334 19.1523 23.3334 14.0001C23.3334 8.84788 19.1523 4.66675 14.0001 4.66675ZM11.0834 17.5001C11.0834 17.9603 10.7103 18.3334 10.2501 18.3334H7.58342C7.12318 18.3334 6.75008 17.9603 6.75008 17.5001V10.5001C6.75008 10.0398 7.12318 9.66675 7.58342 9.66675H10.2501C10.7103 9.66675 11.0834 10.0398 11.0834 10.5001V17.5001ZM21.2501 17.5001C21.2501 17.9603 20.877 18.3334 20.4167 18.3334H17.7501C17.2898 18.3334 16.9167 17.9603 16.9167 17.5001V10.5001C16.9167 10.0398 17.2898 9.66675 17.7501 9.66675H20.4167C20.877 9.66675 21.2501 10.0398 21.2501 10.5001V17.5001Z" fill="white"/>
</svg>
