<svg width="32" height="32" viewBox="0 0 32 32" fill="none" xmlns="http://www.w3.org/2000/svg">
<path d="M16 0C7.163 0 0 7.163 0 16C0 24.837 7.163 32 16 32C24.837 32 32 24.837 32 16C32 7.163 24.837 0 16 0Z" fill="#0052FF"/>
<path d="M16.0007 4.80078C9.6487 4.80078 4.80078 9.6487 4.80078 16.0007C4.80078 22.3527 9.6487 27.2007 16.0007 27.2007C22.3527 27.2007 27.2007 22.3527 27.2007 16.0007C27.2007 9.6487 22.3527 4.80078 16.0007 4.80078ZM21.0087 16.8527H16.8527V21.0087C16.8527 21.4807 16.4727 21.8607 16.0007 21.8607C15.5287 21.8607 15.1487 21.4807 15.1487 21.0087V16.8527H10.9927C10.5207 16.8527 10.1407 16.4727 10.1407 16.0007C10.1407 15.5287 10.5207 15.1487 10.9927 15.1487H15.1487V10.9927C15.1487 10.5207 15.5287 10.1407 16.0007 10.1407C16.4727 10.1407 16.8527 10.5207 16.8527 10.9927V15.1487H21.0087C21.4807 15.1487 21.8607 15.5287 21.8607 16.0007C21.8607 16.4727 21.4807 16.8527 21.0087 16.8527Z" fill="white"/>
</svg>
