<svg width="35" height="33" viewBox="0 0 35 33" fill="none" xmlns="http://www.w3.org/2000/svg">
<path d="M32.9583 1L19.8242 10.7183L22.2666 4.99099L32.9583 1Z" fill="#E17726" stroke="#E17726" stroke-width="0.25" stroke-linecap="round" stroke-linejoin="round"/>
<path d="M2.66284 1L15.67 10.809L13.3546 4.99098L2.66284 1Z" fill="#E27625" stroke="#E27625" stroke-width="0.25" stroke-linecap="round" stroke-linejoin="round"/>
<path d="M28.2292 23.5334L24.7346 28.872L32.2175 30.9323L34.3611 23.6501L28.2292 23.5334Z" fill="#E27625" stroke="#E27625" stroke-width="0.25" stroke-linecap="round" stroke-linejoin="round"/>
<path d="M1.26562 23.6501L3.39585 30.9323L10.8654 28.872L7.38414 23.5334L1.26562 23.6501Z" fill="#E27625" stroke="#E27625" stroke-width="0.25" stroke-linecap="round" stroke-linejoin="round"/>
<path d="M10.4654 14.5149L8.39844 17.6507L15.7859 17.9778L15.5401 10.0186L10.4654 14.5149Z" fill="#E27625" stroke="#E27625" stroke-width="0.25" stroke-linecap="round" stroke-linejoin="round"/>
<path d="M25.1545 14.5148L19.9967 9.92798L19.8242 17.9777L27.2117 17.6507L25.1545 14.5148Z" fill="#E27625" stroke="#E27625" stroke-width="0.25" stroke-linecap="round" stroke-linejoin="round"/>
<path d="M10.8652 28.872L15.2968 26.7082L11.4968 23.7082L10.8652 28.872Z" fill="#E27625" stroke="#E27625" stroke-width="0.25" stroke-linecap="round" stroke-linejoin="round"/>
<path d="M20.3242 26.7082L24.7344 28.872L24.1171 23.7082L20.3242 26.7082Z" fill="#E27625" stroke="#E27625" stroke-width="0.25" stroke-linecap="round" stroke-linejoin="round"/>
<path d="M24.7344 28.8722L20.3242 26.7084L20.6961 29.6149L20.6547 30.8417L24.7344 28.8722Z" fill="#D5BFB2" stroke="#D5BFB2" stroke-width="0.25" stroke-linecap="round" stroke-linejoin="round"/>
<path d="M10.8652 28.8722L14.9652 30.8417L14.9376 29.6149L15.2968 26.7084L10.8652 28.8722Z" fill="#D5BFB2" stroke="#D5BFB2" stroke-width="0.25" stroke-linecap="round" stroke-linejoin="round"/>
<path d="M15.0512 21.7778L11.3926 20.6959L13.9684 19.4959L15.0512 21.7778Z" fill="#233447" stroke="#233447" stroke-width="0.25" stroke-linecap="round" stroke-linejoin="round"/>
<path d="M20.5684 21.7778L21.6512 19.4959L24.2409 20.6959L20.5684 21.7778Z" fill="#233447" stroke="#233447" stroke-width="0.25" stroke-linecap="round" stroke-linejoin="round"/>
<path d="M10.8654 28.872L11.5246 23.5334L7.38428 23.6501L10.8654 28.872Z" fill="#CC6228" stroke="#CC6228" stroke-width="0.25" stroke-linecap="round" stroke-linejoin="round"/>
<path d="M24.0957 23.5334L24.7344 28.872L28.2291 23.6501L24.0957 23.5334Z" fill="#CC6228" stroke="#CC6228" stroke-width="0.25" stroke-linecap="round" stroke-linejoin="round"/>
<path d="M27.2115 17.6504L19.8242 17.9775L20.5684 21.7775L21.6512 19.4956L24.2408 20.6956L27.2115 17.6504Z" fill="#CC6228" stroke="#CC6228" stroke-width="0.25" stroke-linecap="round" stroke-linejoin="round"/>
<path d="M11.3926 20.6956L13.9684 19.4956L15.0512 21.7775L15.7953 17.9775L8.39844 17.6504L11.3926 20.6956Z" fill="#CC6228" stroke="#CC6228" stroke-width="0.25" stroke-linecap="round" stroke-linejoin="round"/>
<path d="M8.39844 17.6504L11.4968 23.7082L11.3926 20.6956L8.39844 17.6504Z" fill="#E27525" stroke="#E27525" stroke-width="0.25" stroke-linecap="round" stroke-linejoin="round"/>
<path d="M24.2412 20.6956L24.1172 23.7082L27.2119 17.6504L24.2412 20.6956Z" fill="#E27525" stroke="#E27525" stroke-width="0.25" stroke-linecap="round" stroke-linejoin="round"/>
<path d="M15.7959 17.9775L15.0518 21.7775L15.9822 26.2738L16.1822 20.3775L15.7959 17.9775Z" fill="#E27525" stroke="#E27525" stroke-width="0.25" stroke-linecap="round" stroke-linejoin="round"/>
<path d="M19.8242 17.9775L19.4518 20.3637L19.6379 26.2738L20.5684 21.7775L19.8242 17.9775Z" fill="#E27525" stroke="#E27525" stroke-width="0.25" stroke-linecap="round" stroke-linejoin="round"/>
<path d="M20.5686 21.7777L19.6382 26.274L20.3242 26.7082L24.1172 23.7082L24.2411 20.6956L20.5686 21.7777Z" fill="#F5841F" stroke="#F5841F" stroke-width="0.25" stroke-linecap="round" stroke-linejoin="round"/>
<path d="M11.3926 20.6956L11.4968 23.7082L15.2968 26.7082L15.9828 26.274L15.0512 21.7777L11.3926 20.6956Z" fill="#F5841F" stroke="#F5841F" stroke-width="0.25" stroke-linecap="round" stroke-linejoin="round"/>
<path d="M20.6547 30.8417L20.6961 29.6148L20.3518 29.3231H15.2687L14.9376 29.6148L14.9652 30.8417L10.8652 28.8722L12.3101 30.0435L15.2135 32.0991H20.3932L23.3104 30.0435L24.7344 28.8722L20.6547 30.8417Z" fill="#C0AC9D" stroke="#C0AC9D" stroke-width="0.25" stroke-linecap="round" stroke-linejoin="round"/>
<path d="M20.3242 26.7082L19.6382 26.274H15.9828L15.2968 26.7082L14.9376 29.6148L15.2687 29.3231H20.3518L20.6961 29.6148L20.3242 26.7082Z" fill="#161616" stroke="#161616" stroke-width="0.25" stroke-linecap="round" stroke-linejoin="round"/>
<path d="M33.7307 11.3371L34.8135 5.89561L32.9583 1L20.3242 10.3913L25.1546 14.5148L32.0417 16.5259L33.5693 14.7371L32.9031 14.2621L33.9859 13.3121L33.1859 12.6916L34.2687 11.8963L33.7307 11.3371Z" fill="#763E1A" stroke="#763E1A" stroke-width="0.25" stroke-linecap="round" stroke-linejoin="round"/>
<path d="M0.808594 5.89561L1.90516 11.3371L1.35344 11.8963L2.43622 12.6916L1.63622 13.3121L2.71901 14.2621L2.05273 14.7371L3.58037 16.5259L10.4675 14.5148L15.2979 10.3913L2.66375 1L0.808594 5.89561Z" fill="#763E1A" stroke="#763E1A" stroke-width="0.25" stroke-linecap="round" stroke-linejoin="round"/>
<path d="M32.0418 16.5259L25.1547 14.5148L27.2118 17.6507L24.1172 23.7082L28.2298 23.6498H34.3618L32.0418 16.5259Z" fill="#F5841F" stroke="#F5841F" stroke-width="0.25" stroke-linecap="round" stroke-linejoin="round"/>
<path d="M10.4673 14.5148L3.58025 16.5259L1.26562 23.6498H7.38414L11.4967 23.7082L8.39828 17.6507L10.4673 14.5148Z" fill="#F5841F" stroke="#F5841F" stroke-width="0.25" stroke-linecap="round" stroke-linejoin="round"/>
<path d="M19.8242 17.9778L20.3242 10.3913L22.2656 4.99121H13.3545L15.2959 10.3913L15.7959 17.9778L15.9684 20.3913L15.9822 26.2738H19.6377L19.6515 20.3913L19.8242 17.9778Z" fill="#F5841F" stroke="#F5841F" stroke-width="0.25" stroke-linecap="round" stroke-linejoin="round"/>
</svg>
