<svg width="35" height="33" viewBox="0 0 35 33" fill="none" xmlns="http://www.w3.org/2000/svg">
<path d="M32.9583 1L19.8242 10.7183L22.2666 4.99099L32.9583 1Z" fill="#E17726" stroke="#E17726" stroke-width="0.25" stroke-linecap="round" stroke-linejoin="round"/>
<path d="M2.65625 1L15.6802 10.809L13.3479 4.99098L2.65625 1Z" fill="#E27625" stroke="#E27625" stroke-width="0.25" stroke-linecap="round" stroke-linejoin="round"/>
<path d="M28.2783 23.5388L24.7852 28.8836L32.2677 30.9321L34.4308 23.6573L28.2783 23.5388Z" fill="#E27625" stroke="#E27625" stroke-width="0.25" stroke-linecap="round" stroke-linejoin="round"/>
<path d="M1.1875 23.6573L3.33984 30.9321L10.8125 28.8836L7.33008 23.5388L1.1875 23.6573Z" fill="#E27625" stroke="#E27625" stroke-width="0.25" stroke-linecap="round" stroke-linejoin="round"/>
<path d="M10.4258 14.5149L8.33008 17.6507L15.7324 17.9862L15.4766 10.0195L10.4258 14.5149Z" fill="#E27625" stroke="#E27625" stroke-width="0.25" stroke-linecap="round" stroke-linejoin="round"/>
<path d="M25.1816 14.5148L20.0605 9.92969L19.8242 17.9861L27.2266 17.6506L25.1816 14.5148Z" fill="#E27625" stroke="#E27625" stroke-width="0.25" stroke-linecap="round" stroke-linejoin="round"/>
<path d="M10.8125 28.8838L15.2754 26.7169L11.4277 23.7092L10.8125 28.8838Z" fill="#E27625" stroke="#E27625" stroke-width="0.25" stroke-linecap="round" stroke-linejoin="round"/>
<path d="M20.332 26.7169L24.7852 28.8838L24.1797 23.7092L20.332 26.7169Z" fill="#E27625" stroke="#E27625" stroke-width="0.25" stroke-linecap="round" stroke-linejoin="round"/>
<path d="M24.7852 28.8835L20.332 26.7166L20.6875 29.5958L20.6484 30.8423L24.7852 28.8835Z" fill="#D5BFB2" stroke="#D5BFB2" stroke-width="0.25" stroke-linecap="round" stroke-linejoin="round"/>
<path d="M10.8125 28.8835L14.9492 30.8423L14.9199 29.5958L15.2754 26.7166L10.8125 28.8835Z" fill="#D5BFB2" stroke="#D5BFB2" stroke-width="0.25" stroke-linecap="round" stroke-linejoin="round"/>
<path d="M15.0195 21.7842L11.3086 20.6954L13.9414 19.5181L15.0195 21.7842Z" fill="#233447" stroke="#233447" stroke-width="0.25" stroke-linecap="round" stroke-linejoin="round"/>
<path d="M20.5879 21.7842L21.666 19.5181L24.3086 20.6954L20.5879 21.7842Z" fill="#233447" stroke="#233447" stroke-width="0.25" stroke-linecap="round" stroke-linejoin="round"/>
<path d="M10.8125 28.8836L11.4473 23.5388L7.33008 23.6573L10.8125 28.8836Z" fill="#CC6228" stroke="#CC6228" stroke-width="0.25" stroke-linecap="round" stroke-linejoin="round"/>
<path d="M24.1602 23.5388L24.7852 28.8836L28.2773 23.6573L24.1602 23.5388Z" fill="#CC6228" stroke="#CC6228" stroke-width="0.25" stroke-linecap="round" stroke-linejoin="round"/>
<path d="M27.2266 17.6506L19.8242 17.9861L20.5879 21.7842L21.666 19.5181L24.3086 20.6954L27.2266 17.6506Z" fill="#CC6228" stroke="#CC6228" stroke-width="0.25" stroke-linecap="round" stroke-linejoin="round"/>
<path d="M11.3086 20.6954L13.9414 19.5181L15.0195 21.7842L15.7832 17.9861L8.33008 17.6506L11.3086 20.6954Z" fill="#CC6228" stroke="#CC6228" stroke-width="0.25" stroke-linecap="round" stroke-linejoin="round"/>
<path d="M8.33008 17.6506L11.4277 23.7092L11.3086 20.6954L8.33008 17.6506Z" fill="#E27525" stroke="#E27525" stroke-width="0.25" stroke-linecap="round" stroke-linejoin="round"/>
<path d="M24.3086 20.6954L24.1797 23.7092L27.2266 17.6506L24.3086 20.6954Z" fill="#E27525" stroke="#E27525" stroke-width="0.25" stroke-linecap="round" stroke-linejoin="round"/>
<path d="M15.7832 17.9861L15.0195 21.7842L15.9707 26.2697L16.2461 20.3599L15.7832 17.9861Z" fill="#E27525" stroke="#E27525" stroke-width="0.25" stroke-linecap="round" stroke-linejoin="round"/>
<path d="M19.8242 17.9861L19.3711 20.3501L19.6367 26.2697L20.5879 21.7842L19.8242 17.9861Z" fill="#E27525" stroke="#E27525" stroke-width="0.25" stroke-linecap="round" stroke-linejoin="round"/>
<path d="M20.5879 21.7843L19.6367 26.2698L20.332 26.7169L24.1797 23.7092L24.3086 20.6954L20.5879 21.7843Z" fill="#F5841F" stroke="#F5841F" stroke-width="0.25" stroke-linecap="round" stroke-linejoin="round"/>
<path d="M11.3086 20.6954L11.4277 23.7092L15.2754 26.7169L15.9707 26.2698L15.0195 21.7843L11.3086 20.6954Z" fill="#F5841F" stroke="#F5841F" stroke-width="0.25" stroke-linecap="round" stroke-linejoin="round"/>
<path d="M20.6484 30.8422L20.6875 29.5957L20.3613 29.3193H15.2461L14.9199 29.5957L14.9492 30.8422L10.8125 28.8835L12.2656 30.0716L15.207 32.0996H20.3906L23.3418 30.0716L24.7852 28.8835L20.6484 30.8422Z" fill="#C0AC9D" stroke="#C0AC9D" stroke-width="0.25" stroke-linecap="round" stroke-linejoin="round"/>
<path d="M20.332 26.7167L19.6367 26.2695H15.9707L15.2754 26.7167L14.9199 29.5959L15.2461 29.3195H20.3613L20.6875 29.5959L20.332 26.7167Z" fill="#161616" stroke="#161616" stroke-width="0.25" stroke-linecap="round" stroke-linejoin="round"/>
<path d="M33.7324 11.3532L34.8398 5.9691L32.9582 1L20.332 10.4419L25.1816 14.5149L32.0754 16.5329L33.5879 14.7517L32.9238 14.2849L33.9922 13.3416L33.1777 12.7465L34.2461 11.9509L33.7324 11.3532Z" fill="#763E1A" stroke="#763E1A" stroke-width="0.25" stroke-linecap="round" stroke-linejoin="round"/>
<path d="M0.767578 5.9691L1.88477 11.3532L1.35156 11.9509L2.42969 12.7465L1.61523 13.3416L2.68359 14.2849L2.01953 14.7517L3.53203 16.5329L10.4258 14.5149L15.2754 10.4419L2.65625 1L0.767578 5.9691Z" fill="#763E1A" stroke="#763E1A" stroke-width="0.25" stroke-linecap="round" stroke-linejoin="round"/>
<path d="M32.0754 16.533L25.1816 14.5149L27.2266 17.6507L24.1797 23.7094L28.2773 23.6574H34.4297L32.0754 16.533Z" fill="#F5841F" stroke="#F5841F" stroke-width="0.25" stroke-linecap="round" stroke-linejoin="round"/>
<path d="M10.4258 14.5149L3.53203 16.533L1.1875 23.6574H7.33008L11.4277 23.7094L8.33008 17.6507L10.4258 14.5149Z" fill="#F5841F" stroke="#F5841F" stroke-width="0.25" stroke-linecap="round" stroke-linejoin="round"/>
<path d="M19.8242 17.9861L20.332 10.4419L22.2773 4.99097H13.3477L15.2754 10.4419L15.7832 17.9861L15.9609 20.3697L15.9707 26.2698H19.6367L19.6562 20.3697L19.8242 17.9861Z" fill="#F5841F" stroke="#F5841F" stroke-width="0.25" stroke-linecap="round" stroke-linejoin="round"/>
</svg>
