<svg width="318" height="318" viewBox="0 0 318 318" fill="none" xmlns="http://www.w3.org/2000/svg">
  <circle cx="159" cy="159" r="159" fill="#0052FF"/>
  <path d="M159.16 77C112.864 77 75 114.864 75 161.16C75 207.456 112.864 245.32 159.16 245.32C205.456 245.32 243.32 207.456 243.32 161.16C243.32 114.864 205.456 77 159.16 77ZM159.16 217.304C128.312 217.304 103.016 192.008 103.016 161.16C103.016 130.312 128.312 105.016 159.16 105.016C190.008 105.016 215.304 130.312 215.304 161.16C215.304 192.008 190.008 217.304 159.16 217.304Z" fill="white"/>
  <path d="M186.296 161.16L159.16 188.296L132.024 161.16L159.16 134.024L186.296 161.16Z" fill="white"/>
</svg>
